<svg xmlns="http://www.w3.org/2000/svg" version="1.1" xmlns:xlink="http://www.w3.org/1999/xlink" xmlns:svgjs="http://svgjs.dev/svgjs" width="90" height="90"><svg xmlns="http://www.w3.org/2000/svg" width="90" height="90"><g fill="none" fill-rule="evenodd"><path fill="#609C60" d="M63.01 57.607c3.71 5.178 7.827 10.344 7.827 10.344C76.13 75.546 69 85 60 82c0 0-10.333-2-15-2s-7.503 1.038-7.503 1.038c-8.564 1.276-10.116-6.76-4.824-14.352 0 0 3.294-4.198 6.765-9.069-5.229.035-6.883-3.339-3.666-7.673l9.223-12.429c3.292-4.435 8.627-4.437 11.92 0l9.223 12.429c3.103 4.18 1.669 7.464-3.129 7.663Z"></path><path stroke="#2B2D2B" stroke-width="4" d="M55 57c3.731 4.486 8.5 9.5 8.5 9.5 4.994 6.004 2.663 11.332-5.419 10.346 0 0-8.613-1.241-13.015-1.241-4.403 0-13.016 1.24-13.016 1.24-8.078 1.01-9.543-5.343-4.55-11.345 0 0 3.854-4.116 7.5-8.5"></path><path stroke="#FFF" stroke-linecap="round" stroke-width="3" d="M54.663 69.396c-2.055-.252-4.71-.545-7.012-.693m-7.39.174c-1.047.095-2.104.206-3.096.319"></path><path stroke="#2B2D2B" stroke-width="4" d="M39.05 37.506c3.294-4.438 8.628-4.446 11.927 0l9.278 12.502c3.293 4.438 1.49 7.866-4.027 7.67 0 0-6.43-.285-11.214-.285-4.785 0-11.215.285-11.215.285-5.517.202-7.325-3.224-4.027-7.67l9.279-12.502Z"></path><path fill="#F5B100" d="M54.05 27.648C53.108 27.276 49 27.5 49 27.5l-5.036 1.259c-.532.133-.931-.213-.892-.759l.504-7.023-4.96-6.011c-.355-.43-.256-1.02.209-1.304 0 0 4.17-2.645 6.175-3.162.51-.132 1.497 1.487 1.497 1.487l3.113-4.892c.89-1.4 2.33-1.407 3.226 0l3.113 4.892 5.614 1.449c1.607.415 2.059 1.782.997 3.069l-3.69 4.472.357 5.787c.102 1.656-1.056 2.51-2.615 1.895l-2.562-1.011Z"></path><path fill="#2B2D2B" d="m40.55 26.669.272-4.406.048-.787-.502-.609-2.811-3.428 4.285-1.106.763-.197.424-.665 2.383-3.747 2.384 3.747.424.665.764.197 4.304 1.104-2.831 3.43-.502.609.048.787.284 4.436-4.14-1.634-.734-.289-.734.29-4.129 1.603Zm10.26 4.536c1.862.734 3.715-.6 3.591-2.61l-.37-5.773 3.706-4.493c1.274-1.544.578-3.718-1.372-4.221l-5.609-1.436-3.124-4.91c-1.074-1.688-3.358-1.698-4.439 0l-3.101 4.892-5.632 1.454c-1.938.5-2.653 2.668-1.372 4.221l3.693 4.477-.357 5.79c-.123 1.998 1.719 3.348 3.591 2.609l5.413-2.135 5.382 2.135Z"></path></g></svg><style>@media (prefers-color-scheme: light) { :root { filter: none; } }
@media (prefers-color-scheme: dark) { :root { filter: none; } }
</style></svg>